<svg width="26" height="24" viewBox="0 0 26 24" fill="none" xmlns="http://www.w3.org/2000/svg">
<path d="M1.60882 0H25.6088V24H1.60882V0Z" fill="#F9C124"/>
<path d="M7.60882 9.00009C7.60882 8.44809 8.05682 8.00009 8.60882 8.00009C9.16082 8.00009 9.60882 8.44809 9.60882 9.00009C9.60882 9.55209 9.16082 10.0001 8.60882 10.0001C8.05682 10.0001 7.60882 9.55209 7.60882 9.00009ZM18.6088 6.00009C16.9518 6.00009 15.6088 7.34309 15.6088 9.00009C15.6088 10.6571 16.9518 12.0001 18.6088 12.0001C20.2658 12.0001 21.6088 10.6571 21.6088 9.00009C21.6088 7.34309 20.2658 6.00009 18.6088 6.00009ZM5.85482 13.1681L1.60882 17.4141L0.194824 16.0001L4.44082 11.7541C3.91682 10.9641 3.60882 10.0191 3.60882 9.00009C3.60882 6.23909 5.84782 4.00009 8.60882 4.00009C11.3698 4.00009 13.6088 6.23909 13.6088 9.00009C13.6088 11.7621 11.3698 14.0001 8.60882 14.0001C7.58982 14.0001 6.64482 13.6921 5.85482 13.1681ZM5.60882 9.00009C5.60882 10.6541 6.95482 12.0001 8.60882 12.0001C10.2628 12.0001 11.6088 10.6541 11.6088 9.00009C11.6088 7.34609 10.2628 6.00009 8.60882 6.00009C6.95482 6.00009 5.60882 7.34609 5.60882 9.00009ZM9.69082 15.6681L8.27682 17.0821C9.74682 18.5521 11.6778 19.2871 13.6088 19.2871C15.5398 19.2871 17.4708 18.5521 18.9408 17.0821L17.5268 15.6681C15.3668 17.8281 11.8508 17.8281 9.69082 15.6681Z" fill="#5858AF"/>
</svg>
