<svg width="30" height="28" viewBox="0 0 30 28" fill="none" xmlns="http://www.w3.org/2000/svg">
<path d="M0 0.5L15 27.5L30 0.5H0Z" fill="#F9C124"/>
<path d="M13.69 8.79009C14.36 9.99009 13.92 11.5201 12.71 12.1901C11.51 12.8601 9.99 12.4201 9.32 11.2101C8.64 10.0101 9.08 8.49009 10.29 7.81009C11.49 7.14109 13.02 7.58009 13.69 8.79009ZM12.19 4.68709L11.231 2.93109L6.843 5.32909L7.802 7.08409L12.19 4.68709ZM17.344 15.2461L16.166 13.1251L13.543 14.5831C11.132 15.9171 8.085 15.0491 6.745 12.6421L8.752 16.2541C9.507 16.5481 10.312 16.7071 11.128 16.7071C11.54 16.7071 11.953 16.6561 12.363 16.5761L12.973 17.6741C13.644 18.8811 15.166 19.3161 16.373 18.6451C17.58 17.9751 18.014 16.4531 17.344 15.2461Z" fill="#5858AF"/>
</svg>
