<svg width="27" height="30" viewBox="0 0 27 30" fill="none" xmlns="http://www.w3.org/2000/svg">
<path d="M13.8052 0L0.804199 7.5V13V14.999V22.5L13.8052 30L26.8052 22.5V14.999V13V7.5L13.8052 0Z" fill="#F9C124"/>
<path d="M24.7039 12.9997C24.2409 10.7177 22.2239 8.9997 19.8049 8.9997C17.3859 8.9997 15.3689 10.7177 14.9049 12.9997H12.7039C12.2409 10.7177 10.2239 8.9997 7.8049 8.9997C5.3859 8.9997 3.3689 10.7177 2.9049 12.9997L0.804199 13V14.999L2.9049 14.9997C3.3689 17.2817 5.3859 18.9997 7.8049 18.9997C10.2239 18.9997 12.2409 17.2817 12.7039 14.9997H14.9049C15.3689 17.2817 17.3859 18.9997 19.8049 18.9997C22.2239 18.9997 24.2409 17.2817 24.7039 14.9997L26.8052 14.999V13L24.7039 12.9997ZM10.6209 14.9997C10.2079 16.1627 9.1089 16.9997 7.8049 16.9997C6.4999 16.9997 5.4019 16.1627 4.9879 14.9997C4.8769 14.6857 4.8049 14.3527 4.8049 13.9997C4.8049 13.6467 4.8769 13.3137 4.9879 12.9997C5.4019 11.8367 6.4999 10.9997 7.8049 10.9997C9.1089 10.9997 10.2079 11.8367 10.6209 12.9997C10.7329 13.3137 10.8049 13.6467 10.8049 13.9997C10.8049 14.3527 10.7329 14.6857 10.6209 14.9997ZM22.6209 14.9997C22.2079 16.1627 21.1089 16.9997 19.8049 16.9997C18.4999 16.9997 17.4019 16.1627 16.9879 14.9997C16.8769 14.6857 16.8049 14.3527 16.8049 13.9997C16.8049 13.6467 16.8769 13.3137 16.9879 12.9997C17.4019 11.8367 18.4999 10.9997 19.8049 10.9997C21.1089 10.9997 22.2079 11.8367 22.6209 12.9997C22.7329 13.3137 22.8049 13.6467 22.8049 13.9997C22.8049 14.3527 22.7329 14.6857 22.6209 14.9997ZM17.7229 20.6677L19.1369 22.0817C17.7119 23.5067 15.8189 24.2907 13.8049 24.2907C11.7899 24.2907 9.8969 23.5067 8.4729 22.0817L9.8869 20.6677C10.9339 21.7147 12.3249 22.2907 13.8049 22.2907C15.2849 22.2907 16.6759 21.7147 17.7229 20.6677Z" fill="#5858AF"/>
</svg>
