<svg width="30" height="30" viewBox="0 0 30 30" fill="none" xmlns="http://www.w3.org/2000/svg">
<path d="M20.328 8.88L15 0L9.672 8.88C11.399 8.633 13.199 8.5 15 8.5C16.801 8.5 18.602 8.633 20.328 8.88Z" fill="#5858AF"/>
<path d="M21.68 11.134C19.666 10.732 17.403 10.5 15 10.5C12.597 10.5 10.333 10.732 8.32 11.134C3.392 12.117 0 14.148 0 16.5C0 18.72 3.021 20.653 7.5 21.691V22.5C7.5 22.579 7.509 22.656 7.512 22.735C7.523 23.084 7.557 23.426 7.614 23.761C8.215 27.302 11.288 30 15 30C18.711 30 21.785 27.302 22.386 23.761C22.443 23.426 22.477 23.084 22.488 22.735C22.49 22.656 22.5 22.579 22.5 22.5V21.691C26.979 20.653 30 18.72 30 16.5C30 14.148 26.607 12.117 21.68 11.134Z" fill="#5858AF"/>
<path d="M21 17C21 15.895 20.105 15 19 15C17.895 15 17 15.895 17 17C17 18.105 17.895 19 19 19C20.105 19 21 18.105 21 17Z" fill="#F9C124"/>
<path d="M13 17C13 15.895 12.105 15 11 15C9.895 15 9 15.895 9 17C9 18.105 9.895 19 11 19C12.105 19 13 18.105 13 17Z" fill="#F9C124"/>
<path d="M18 22C18 23.657 16.657 25 15 25C13.343 25 12 23.657 12 22" fill="#F9C124"/>
</svg>
